<?xml version="1.0" encoding="UTF-8" standalone="no"?>
<!-- Generator: Adobe Illustrator 19.0.0, SVG Export Plug-In . SVG Version: 6.00 Build 0)  -->

<svg
   version="1.1"
   id="Layer_1"
   x="0px"
   y="0px"
   viewBox="0 0 440 440"
   style="enable-background:new 0 0 440 440;"
   xml:space="preserve"
   sodipodi:docname="ruble-logo.svg"
   inkscape:version="1.2 (dc2aedaf03, 2022-05-15)"
   xmlns:inkscape="http://www.inkscape.org/namespaces/inkscape"
   xmlns:sodipodi="http://sodipodi.sourceforge.net/DTD/sodipodi-0.dtd"
   xmlns="http://www.w3.org/2000/svg"
   xmlns:svg="http://www.w3.org/2000/svg"><path
   id="path1182"
   style="fill:none;stroke:#ffffff;stroke-width:15.46;stroke-dasharray:none;stroke-opacity:1"
   inkscape:label="path1182"
   d="M 419.73301,220.2142 A 199.30461,199.30461 0 0 1 220.4284,419.51881 199.30461,199.30461 0 0 1 21.123795,220.2142 199.30461,199.30461 0 0 1 220.4284,20.909592 199.30461,199.30461 0 0 1 419.73301,220.2142 Z" /><path
   d="m 231.75802,244.71993 c 63.913,0 115.91,-54.382 115.91,-121.227 0,-66.831002 -51.997,-121.2010016 -115.91,-121.2010016 h -111.954 V 284.71993 H 90.804024 v 30 h 28.999996 v 127.572 h 30 v -127.572 h 101.955 v -30 h -101.955 v -40 z m -81.954,-212.428002 h 81.955 c 47.371,0 85.91,40.912 85.91,91.201002 0,50.303 -38.539,91.227 -85.91,91.227 h -81.955 z"
   id="path3372"
   inkscape:label="path355"
   style="enable-background:new 0 0 440 440;stroke-width:1.00037;stroke-dasharray:none;fill:#ffffff"
   transform="matrix(0.56079281,0,0,0.56079281,106.76315,101.56664)" /><defs
   id="defs392" /><sodipodi:namedview
   id="namedview390"
   pagecolor="#ffffff"
   bordercolor="#000000"
   borderopacity="0.25"
   inkscape:showpageshadow="2"
   inkscape:pageopacity="0.0"
   inkscape:pagecheckerboard="0"
   inkscape:deskcolor="#d1d1d1"
   showgrid="false"
   inkscape:zoom="2.3340909"
   inkscape:cx="156.16358"
   inkscape:cy="220.21422"
   inkscape:window-width="2560"
   inkscape:window-height="1361"
   inkscape:window-x="1591"
   inkscape:window-y="-9"
   inkscape:window-maximized="1"
   inkscape:current-layer="Layer_1" />
















</svg>
